<svg width="357" height="72" viewBox="0 0 357 72" fill="none" xmlns="http://www.w3.org/2000/svg">
<g clip-path="url(#clip0_11140_208947)">
<path d="M87.668 57.4948V18.8936H93.5457V52.8645H111.183V57.4948H87.668Z" fill="#0EAA4F"/>
<path d="M125.66 58.1604C123.148 58.2062 120.669 57.5871 118.476 56.3666C116.407 55.1906 114.71 53.4613 113.578 51.3751C112.356 49.086 111.745 46.5235 111.803 43.9324C111.744 41.3084 112.344 38.7112 113.55 36.3761C114.667 34.2589 116.366 32.5001 118.448 31.3034C120.663 30.0588 123.174 29.4295 125.717 29.4813C128.186 29.4231 130.622 30.0438 132.758 31.275C134.711 32.4254 136.32 34.0728 137.42 36.0474C138.533 38.056 139.105 40.3163 139.081 42.6095C139.081 42.9747 139.081 43.3724 139.056 43.7944C139.032 44.2165 139.008 44.6832 138.971 45.1986H117.554C117.739 47.8445 118.617 49.8573 120.187 51.2371C121.681 52.5877 123.633 53.327 125.652 53.3068C127.131 53.3573 128.591 52.9626 129.84 52.1746C130.97 51.4218 131.851 50.3527 132.371 49.1025H138.252C137.515 51.6681 135.969 53.9302 133.84 55.555C131.641 57.2919 128.915 58.1604 125.66 58.1604ZM125.66 34.2821C123.775 34.2558 121.937 34.8683 120.448 36.019C118.929 37.1742 118.004 38.9111 117.672 41.2297H133.183C133.074 39.1005 132.316 37.4096 130.909 36.157C129.461 34.8946 127.585 34.2247 125.66 34.2821Z" fill="#0EAA4F"/>
<path d="M151.175 58.1613C148.846 58.1613 146.923 57.7744 145.407 57.0007C144.003 56.3314 142.827 55.2676 142.024 53.9408C141.283 52.6777 140.9 51.2391 140.913 49.7771C140.872 48.5563 141.134 47.344 141.675 46.2476C142.217 45.1512 143.022 44.2045 144.02 43.491C146.09 41.9489 149.048 41.1765 152.893 41.1738H160.106V40.6787C160.106 38.5495 159.522 36.9506 158.355 35.882C157.114 34.7868 155.494 34.2136 153.836 34.283C152.334 34.2471 150.855 34.6599 149.591 35.468C148.997 35.8605 148.494 36.3751 148.117 36.9771C147.739 37.5792 147.496 38.2547 147.403 38.958H141.522C141.665 37.091 142.377 35.3117 143.562 33.8569C144.751 32.429 146.275 31.3139 147.999 30.6104C149.864 29.8454 151.864 29.4617 153.881 29.4822C157.726 29.4822 160.702 30.4846 162.808 32.4893C164.914 34.4941 165.968 37.2239 165.971 40.6787V57.4957H160.869L160.367 52.8086C159.576 54.3367 158.414 55.6449 156.987 56.6151C155.515 57.6459 153.578 58.1613 151.175 58.1613ZM152.338 53.4173C153.764 53.4644 155.169 53.0686 156.359 52.2851C157.459 51.5233 158.339 50.4878 158.91 49.282C159.536 47.9826 159.921 46.5819 160.049 45.1467H153.518C151.191 45.1467 149.537 45.5526 148.554 46.3642C148.091 46.7222 147.716 47.1823 147.462 47.7083C147.207 48.2343 147.078 48.8118 147.085 49.3956C147.063 49.9647 147.18 50.5306 147.427 51.0445C147.674 51.5584 148.043 52.0051 148.501 52.3459C149.435 53.0629 150.714 53.42 152.338 53.4173Z" fill="#0EAA4F"/>
<path d="M169.53 57.4962V30.1482H174.8L175.302 35.3305C176.225 33.5682 177.615 32.0905 179.322 31.0572C181.214 29.9637 183.376 29.4183 185.563 29.4826V35.6064H183.951C182.461 35.5853 180.981 35.8613 179.6 36.418C178.311 36.9603 177.238 37.9103 176.547 39.1208C175.793 40.3869 175.415 42.1455 175.412 44.3964V57.5205L169.53 57.4962Z" fill="#0EAA4F"/>
<path d="M187.281 57.663V30.315H192.494L192.939 35.1118C193.766 33.444 195.067 32.0541 196.681 31.1145C198.406 30.118 200.373 29.6112 202.367 29.6495C205.693 29.6495 208.308 30.6789 210.212 32.7377C212.117 34.7966 213.07 37.8673 213.07 41.9498V57.663H207.249V42.5544C207.249 37.2626 205.072 34.6153 200.718 34.6126C199.702 34.5867 198.692 34.7805 197.758 35.1805C196.824 35.5806 195.989 36.1774 195.31 36.9298C193.887 38.4773 193.175 40.6836 193.175 43.5487V57.663H187.281Z" fill="#0EAA4F"/>
<path d="M241.744 69.6313V30.1494H247.014L247.626 34.3942C248.607 33.0202 249.856 31.8567 251.299 30.9732C252.851 29.983 254.847 29.4866 257.287 29.4839C259.767 29.4364 262.209 30.0864 264.332 31.3587C266.364 32.6106 268.021 34.3822 269.128 36.4883C270.321 38.7684 270.922 41.3086 270.875 43.8782C270.924 46.439 270.323 48.9707 269.128 51.2397C268.021 53.3312 266.364 55.0845 264.332 56.3124C262.187 57.5761 259.728 58.2171 257.234 58.1629C255.264 58.2016 253.313 57.7658 251.548 56.8927C249.938 56.0796 248.584 54.8394 247.638 53.3094V69.6313H241.744ZM256.222 53.0862C257.384 53.1241 258.541 52.9153 259.616 52.4738C260.691 52.0322 261.659 51.368 262.455 50.5255C264.088 48.8129 264.904 46.5796 264.904 43.8254C264.935 42.1589 264.554 40.5104 263.794 39.0246C263.092 37.6457 262.01 36.4938 260.674 35.7033C259.339 34.9129 257.804 34.5166 256.251 34.5606C255.093 34.5251 253.942 34.738 252.875 35.1848C251.808 35.6316 250.85 36.3018 250.067 37.1497C248.459 38.8785 247.654 41.1037 247.654 43.8254C247.654 46.5471 248.459 48.7804 250.067 50.5255C250.851 51.3629 251.805 52.0245 252.867 52.4661C253.928 52.9077 255.072 53.1191 256.222 53.0862Z" fill="#0EAA4F"/>
<path d="M283.234 58.1616C280.905 58.1616 278.981 57.7747 277.463 57.001C276.06 56.3296 274.884 55.2663 274.079 53.9411C273.342 52.6768 272.96 51.2388 272.973 49.7774C272.931 48.5566 273.193 47.3443 273.735 46.2479C274.277 45.1515 275.082 44.2048 276.079 43.4913C278.15 41.9492 281.108 41.1768 284.953 41.1741H292.161V40.679C292.161 38.5498 291.579 36.9509 290.414 35.8823C289.173 34.7871 287.553 34.2139 285.896 34.2834C284.389 34.245 282.906 34.6579 281.639 35.4683C281.046 35.8621 280.546 36.3772 280.171 36.9792C279.795 37.5811 279.554 38.256 279.463 38.9584H273.581C273.723 37.0909 274.435 35.3111 275.622 33.8572C276.81 32.4293 278.334 31.3143 280.059 30.6107C281.931 29.841 283.94 29.4559 285.965 29.4785C289.816 29.4785 292.793 30.4808 294.896 32.4856C296.999 34.4903 298.054 37.2201 298.059 40.675V57.492H292.957L292.455 52.8048C291.664 54.334 290.5 55.6424 289.071 56.6114C287.583 57.6449 285.637 58.1616 283.234 58.1616ZM284.398 53.4176C285.824 53.4647 287.229 53.069 288.418 52.2854C289.518 51.5236 290.398 50.4881 290.969 49.2823C291.593 47.9822 291.979 46.5819 292.108 45.1471H285.577C283.251 45.1471 281.596 45.5529 280.614 46.3645C280.15 46.7226 279.776 47.1826 279.521 47.7086C279.266 48.2346 279.137 48.8121 279.145 49.396C279.122 49.9652 279.238 50.5314 279.485 51.0455C279.732 51.5596 280.101 52.0061 280.561 52.3463C281.494 53.0632 282.773 53.4203 284.398 53.4176Z" fill="#0EAA4F"/>
<path d="M314.628 58.1623C312.095 58.2041 309.596 57.5753 307.387 56.3402C305.286 55.1506 303.558 53.4044 302.395 51.2959C301.16 49.0018 300.541 46.4302 300.595 43.8289C300.539 41.2248 301.159 38.6503 302.395 36.3537C303.558 34.2453 305.286 32.499 307.387 31.3094C309.596 30.0744 312.095 29.4455 314.628 29.4873C318.027 29.4873 320.884 30.3706 323.2 32.1373C325.514 33.9079 327.101 36.4553 327.665 39.304H321.506C321.176 37.859 320.299 36.596 319.057 35.7775C317.803 34.9808 316.354 34.541 314.866 34.5059C313.379 34.4708 311.91 34.8419 310.62 35.5786C309.364 36.3335 308.346 37.423 307.681 38.7237C306.898 40.3096 306.521 42.0632 306.583 43.8289C306.526 45.5928 306.907 47.3437 307.693 48.9259C308.362 50.2313 309.379 51.329 310.632 52.0994C311.835 52.83 313.219 53.2122 314.628 53.2032C316.201 53.2411 317.749 52.8023 319.065 51.9452C320.318 51.1117 321.196 49.8268 321.514 48.3618H327.669C327.112 51.1914 325.534 53.7211 323.233 55.4758C320.898 57.2668 318.03 58.1623 314.628 58.1623Z" fill="#0EAA4F"/>
<path d="M343.578 58.1604C341.066 58.2068 338.587 57.5878 336.394 56.3667C334.325 55.1906 332.628 53.4614 331.496 51.3752C330.272 49.0868 329.661 46.5237 329.721 43.9325C329.662 41.3085 330.262 38.7113 331.468 36.3762C332.586 34.2595 334.284 32.5008 336.366 31.3035C338.588 30.0556 341.108 29.4261 343.66 29.4814C346.13 29.4226 348.568 30.0433 350.705 31.2751C352.658 32.4254 354.267 34.0729 355.366 36.0475C356.469 38.0587 357.032 40.3189 356.999 42.6095C356.999 42.9748 356.999 43.3725 356.97 43.7945C356.942 44.2166 356.926 44.6832 356.889 45.1986H335.48C335.665 47.8446 336.543 49.8574 338.113 51.2372C339.607 52.5878 341.559 53.3271 343.578 53.3069C345.056 53.3565 346.514 52.9619 347.762 52.1746C348.888 51.4239 349.765 50.3594 350.285 49.1148H356.162C355.428 51.6806 353.883 53.9432 351.754 55.5672C349.558 57.296 346.833 58.1604 343.578 58.1604ZM343.578 34.2822C341.696 34.2593 339.861 34.8716 338.374 36.0191C336.858 37.1743 335.935 38.9112 335.603 41.2297H351.134C351.025 39.1006 350.267 37.4097 348.86 36.157C347.403 34.8869 345.515 34.2165 343.578 34.2822Z" fill="#0EAA4F"/>
<path d="M61.8013 52.9602C57.5359 61.036 47.6785 65.0089 39.1028 66.616C38.164 66.7918 37.2116 66.9352 36.2456 67.0461C36.2938 66.8536 36.3185 66.6561 36.319 66.4577V36.7194C44.9274 41.9951 57.2583 41.9951 63.1768 32.8033C65.5932 29.0576 66.4422 24.1026 64.5768 19.9511C63.1686 16.7938 60.2012 17.0373 57.2869 17.5933C54.8682 18.0616 52.4987 18.7531 50.2092 19.6589C45.0498 21.6891 40.3354 24.6949 36.3272 28.5098V19.9065C36.3272 16.9278 31.674 16.9237 31.674 19.9065V34.1993C29.1444 31.0255 26.2078 28.1946 22.9391 25.7786C20.7489 24.1516 18.406 22.7383 15.9431 21.5581C13.4124 20.3407 9.98782 18.6728 7.87757 21.5175C6.35916 23.5466 5.73874 26.4442 5.46935 28.9278C5.20145 31.4609 5.42312 34.0215 6.12242 36.4719C6.81033 38.9369 7.99412 41.2376 9.60215 43.2346C11.2102 45.2317 13.209 46.8836 15.4777 48.0904C20.4125 50.6633 26.4372 51.2152 31.6822 49.2511V66.4577C31.6814 66.7591 31.7382 67.0579 31.8496 67.3383C25.629 67.4195 19.3595 66.0884 14.0287 62.8743C9.7021 60.269 5.71425 56.3569 4.55504 51.3167C3.88564 48.4151 -0.60018 49.6447 0.065142 52.5341C2.39989 62.6795 13.1552 69.1726 22.7759 71.0881C32.7802 73.0887 43.3437 71.4127 52.5072 67.0502C57.9318 64.4692 62.9727 60.6545 65.8136 55.2815C67.2096 52.664 63.1972 50.3224 61.8013 52.9602ZM48.654 25.4012C52.1316 23.64 56.2501 22.0979 60.1727 21.7935C60.2321 21.7913 60.2911 21.7818 60.3482 21.7651V21.7935C60.5727 22.037 60.6339 22.6051 60.7155 22.942C60.9066 23.7291 60.9782 24.5403 60.9278 25.3485C60.832 26.888 60.3809 28.3849 59.6094 29.7232C58.7563 31.2373 57.5756 32.5441 56.1525 33.5491C54.7294 34.5541 53.0995 35.2322 51.3806 35.5345C47.005 36.3988 42.4008 34.9988 38.666 32.7262L38.6048 32.6978C38.6997 32.6281 38.791 32.5536 38.8783 32.4746C41.7353 29.612 45.0358 27.2239 48.654 25.4012ZM30.9393 44.641C23.5677 47.6481 14.6124 44.641 11.3144 37.2267C9.74478 33.6406 9.59032 29.5986 10.8817 25.9044C11.0123 25.5298 11.1635 25.1627 11.3348 24.8047C11.3552 24.7641 11.3838 24.7154 11.4123 24.6707C11.6858 24.8047 12.3879 25.0076 12.543 25.0766C13.1348 25.3403 13.7226 25.6204 14.3022 25.8882C16.2772 26.8829 18.1726 28.0266 19.9717 29.3092C23.9829 32.1976 27.4242 35.7965 30.123 39.9254C30.2912 40.2009 30.5179 40.4366 30.7872 40.616C31.0565 40.7954 31.3619 40.9143 31.6822 40.9643V44.5192C31.4285 44.5029 31.1744 44.5446 30.9393 44.641Z" fill="#0EAA4F"/>
<path d="M11.5802 14.6085C12.7516 15.3065 14.0292 14.7789 14.7639 13.7765C18.9844 8.05046 26.1601 4.84857 33.2011 4.65378C37.2133 4.56803 41.2042 5.25713 44.9524 6.68286C46.7437 7.35062 48.4762 8.16505 50.1321 9.11776C51.0423 9.64126 51.9566 10.1851 52.8138 10.7938C53.1607 11.0413 53.4301 11.3254 53.7567 11.6054C53.8173 11.6507 53.8686 11.7072 53.9077 11.7718C53.9293 11.7176 53.9566 11.6659 53.9893 11.6176C53.9567 11.6703 53.9363 11.719 53.9077 11.7718C53.8301 11.9909 54.0097 11.9463 53.9077 11.7718C52.5648 14.231 56.4384 16.4022 57.9894 13.947C61.014 9.2111 53.3975 5.48976 50.128 3.90301C45.5092 1.60885 40.4635 0.288051 35.3073 0.0234068C25.7928 -0.38241 16.4048 3.7488 10.7475 11.4269C9.99648 12.4414 10.5842 13.9957 11.5802 14.6085Z" fill="#0EAA4F"/>
<path d="M228.414 57.6633C224.929 57.6633 222.058 56.5234 219.8 54.2437C218.711 53.1862 217.801 51.8332 217.131 50.2732C216.46 48.7133 216.044 46.9817 215.91 45.192H221.858C222.168 46.927 222.913 48.4686 223.968 49.5622C225.081 50.7749 226.544 51.3794 228.357 51.3758C230.171 51.3721 231.469 50.8787 232.251 49.8954C232.629 49.479 232.934 48.9581 233.146 48.3685C233.358 47.779 233.471 47.135 233.478 46.4812C233.478 44.5966 232.91 43.3238 231.781 42.6573C230.266 41.8382 228.693 41.2286 227.085 40.8383C225.509 40.3852 223.958 39.7902 222.443 39.0574C221.005 38.3984 219.696 37.3198 218.61 35.9C217.579 34.5234 217.064 32.6716 217.064 30.3445C217.045 28.8101 217.285 27.2897 217.765 25.8959C218.246 24.5021 218.956 23.2706 219.841 22.2925C221.693 20.1366 224.283 19.0586 227.613 19.0586C230.689 19.0586 233.18 20.0492 235.086 22.0303C236.992 24.0114 238.114 26.8083 238.452 30.4209H232.808C232.738 29.686 232.557 28.9776 232.275 28.3391C231.994 27.7005 231.618 27.145 231.171 26.7063C230.263 25.8141 229.05 25.3698 227.531 25.3734C226.046 25.3734 224.897 25.7777 224.083 26.5971C223.7 26.9476 223.388 27.4185 223.174 27.9682C222.96 28.5179 222.851 29.1295 222.856 29.749C222.856 31.0382 223.42 32.0488 224.553 32.7917C225.986 33.6733 227.487 34.3454 229.028 34.7965C230.765 35.3021 232.48 35.9349 234.166 36.6921C235.612 37.3013 236.921 38.3849 237.974 39.8441C238.939 41.2316 239.422 43.2619 239.422 45.9349C239.458 47.5398 239.212 49.1337 238.705 50.5895C238.198 52.0453 237.443 53.3228 236.501 54.3201C234.516 56.5489 231.82 57.6633 228.414 57.6633Z" fill="#0EAA4F"/>
</g>
<defs>
<clipPath id="clip0_11140_208947">
<rect width="357" height="72" fill="white"/>
</clipPath>
</defs>
</svg>
